<svg width="140" height="40" viewBox="0 0 140 40" fill="none" xmlns="http://www.w3.org/2000/svg">
<g filter="url(#filter0_d_31_631)">
<path d="M21.888 32C20.928 32 19.9787 31.7227 19.04 31.168C18.1227 30.6347 16.9493 29.8027 15.52 28.672C14.4533 27.8187 13.536 27.1253 12.768 26.592C12.0213 26.08 11.2 25.6427 10.304 25.28C9.42933 24.9173 8.53333 24.736 7.616 24.736C7.296 24.736 7.05067 24.7467 6.88 24.768L11.648 2.592C10.2187 3.168 9.10933 4.05333 8.32 5.248C7.552 6.42133 7.168 7.86133 7.168 9.568C7.168 10.3573 7.24267 10.912 7.392 11.232C7.54133 11.5307 7.616 11.7013 7.616 11.744C6.464 11.744 5.6 11.5093 5.024 11.04C4.46933 10.5493 4.192 9.74933 4.192 8.64C4.192 7.27467 4.74667 5.952 5.856 4.672C6.98667 3.37067 8.42667 2.32533 10.176 1.536C11.9253 0.725333 13.6747 0.32 15.424 0.32C15.7227 0.32 16.1493 0.341333 16.704 0.383999L11.776 23.36C12.3733 23.5093 12.9813 23.7227 13.6 24C14.24 24.2987 15.008 24.6933 15.904 25.184C17.2907 25.9307 18.4747 26.496 19.456 26.88C20.4373 27.2853 21.4613 27.488 22.528 27.488C23.488 27.488 24.384 27.3173 25.216 26.976C25.0453 28.5333 24.6613 29.76 24.064 30.656C23.488 31.552 22.7627 32 21.888 32ZM19.293 24.192C18.269 24.192 17.437 23.872 16.797 23.232C16.1783 22.592 15.869 21.632 15.869 20.352C15.869 19.8187 15.9543 19.1253 16.125 18.272L18.301 8H22.909L20.605 18.88C20.541 19.2 20.509 19.4987 20.509 19.776C20.509 20.6507 20.829 21.088 21.469 21.088C22.0663 21.088 22.5783 20.8427 23.005 20.352C23.4317 19.84 23.773 19.1467 24.029 18.272L26.205 8H30.813L28.509 18.88C28.4237 19.2 28.381 19.5413 28.381 19.904C28.381 20.3307 28.477 20.64 28.669 20.832C28.8823 21.0027 29.2237 21.088 29.693 21.088C30.2903 21.088 30.8023 20.832 31.229 20.32C31.677 19.808 32.029 19.1253 32.285 18.272H33.629C32.8397 20.576 31.8583 22.144 30.685 22.976C29.533 23.7867 28.3703 24.192 27.197 24.192C26.2797 24.192 25.5437 23.936 24.989 23.424C24.4557 22.912 24.1357 22.1547 24.029 21.152C23.3037 22.3253 22.5357 23.1253 21.725 23.552C20.9357 23.9787 20.125 24.192 19.293 24.192ZM43.8333 24.192C42.5319 24.192 41.5719 23.8507 40.9533 23.168C40.3559 22.464 40.0573 21.6 40.0573 20.576C40.0573 20.128 40.1106 19.6267 40.2173 19.072C40.3239 18.496 40.4306 17.9413 40.5373 17.408C40.6653 16.8747 40.7506 16.5333 40.7933 16.384C40.9639 15.6373 41.1239 14.9013 41.2733 14.176C41.4226 13.4507 41.4973 12.864 41.4973 12.416C41.4973 11.328 41.1133 10.784 40.3453 10.784C39.7906 10.784 39.2999 11.0613 38.8733 11.616C38.4466 12.1493 38.1053 12.8533 37.8493 13.728L35.6733 24H31.0652L34.4573 8H39.0653L38.7133 9.664C39.7799 8.46933 41.0279 7.872 42.4573 7.872C43.5453 7.872 44.4093 8.17067 45.0493 8.768C45.6893 9.36533 46.0093 10.272 46.0093 11.488C46.0093 12.1067 45.9346 12.8 45.7853 13.568C45.6359 14.3147 45.4226 15.232 45.1453 16.32C44.9746 16.9813 44.8146 17.632 44.6653 18.272C44.5373 18.8907 44.4733 19.3813 44.4733 19.744C44.4733 20.1707 44.5693 20.5013 44.7613 20.736C44.9533 20.9707 45.2839 21.088 45.7533 21.088C46.3933 21.088 46.9053 20.864 47.2893 20.416C47.6733 19.9467 48.0573 19.232 48.4412 18.272H49.7853C48.9959 20.6187 48.0786 22.1973 47.0333 23.008C46.0093 23.7973 44.9426 24.192 43.8333 24.192ZM52.2775 24.192C51.0615 24.192 50.0482 23.776 49.2375 22.944C48.4268 22.112 48.0215 20.8107 48.0215 19.04C48.0215 17.4613 48.3308 15.808 48.9495 14.08C49.5895 12.3307 50.5282 10.8587 51.7655 9.664C53.0242 8.448 54.5175 7.84 56.2455 7.84C57.1202 7.84 57.7708 7.98933 58.1975 8.288C58.6242 8.58667 58.8375 8.98133 58.8375 9.472V9.696L59.1895 8H63.7975L61.4935 18.88C61.4082 19.2 61.3655 19.5413 61.3655 19.904C61.3655 20.8213 61.8028 21.28 62.6775 21.28C63.2748 21.28 63.7868 21.0027 64.2135 20.448C64.6615 19.8933 65.0135 19.168 65.2695 18.272H66.6135C65.8242 20.576 64.8428 22.144 63.6695 22.976C62.5175 23.7867 61.3548 24.192 60.1815 24.192C59.2855 24.192 58.5602 23.9467 58.0055 23.456C57.4722 22.944 57.1522 22.208 57.0455 21.248C56.4268 22.1227 55.7335 22.8373 54.9655 23.392C54.2188 23.9253 53.3228 24.192 52.2775 24.192ZM54.3575 21.088C54.8908 21.088 55.4135 20.8427 55.9255 20.352C56.4588 19.84 56.8215 19.1467 57.0135 18.272L58.5495 11.04C58.5495 10.7627 58.4428 10.496 58.2295 10.24C58.0162 9.96267 57.6855 9.824 57.2375 9.824C56.3842 9.824 55.6162 10.3253 54.9335 11.328C54.2508 12.3093 53.7175 13.504 53.3335 14.912C52.9495 16.2987 52.7575 17.5253 52.7575 18.592C52.7575 19.6587 52.9068 20.3413 53.2055 20.64C53.5255 20.9387 53.9095 21.088 54.3575 21.088ZM67.4573 8H72.0653L71.6493 9.984C72.3746 9.344 73.0253 8.85333 73.6013 8.512C74.1986 8.17067 74.8386 8 75.5213 8C76.2039 8 76.7373 8.23467 77.1213 8.704C77.5266 9.17333 77.7293 9.73867 77.7293 10.4C77.7293 11.0187 77.5266 11.5627 77.1213 12.032C76.7159 12.5013 76.1506 12.736 75.4253 12.736C74.9559 12.736 74.6359 12.6293 74.4653 12.416C74.3159 12.1813 74.1986 11.8507 74.1133 11.424C74.0493 11.1467 73.9853 10.944 73.9213 10.816C73.8573 10.688 73.7399 10.624 73.5693 10.624C73.1213 10.624 72.7373 10.72 72.4173 10.912C72.1186 11.0827 71.7239 11.392 71.2333 11.84L68.6733 24H64.0652L67.4573 8ZM102.138 32C101.178 32 100.229 31.7227 99.29 31.168C98.3727 30.6347 97.1993 29.8027 95.77 28.672C94.7033 27.8187 93.786 27.1253 93.018 26.592C92.2713 26.08 91.45 25.6427 90.554 25.28C89.6793 24.9173 88.7833 24.736 87.866 24.736C87.546 24.736 87.3007 24.7467 87.13 24.768L91.898 2.592C90.4687 3.168 89.3593 4.05333 88.57 5.248C87.802 6.42133 87.418 7.86133 87.418 9.568C87.418 10.3573 87.4927 10.912 87.642 11.232C87.7913 11.5307 87.866 11.7013 87.866 11.744C86.714 11.744 85.85 11.5093 85.274 11.04C84.7193 10.5493 84.442 9.74933 84.442 8.64C84.442 7.27467 84.9967 5.952 86.106 4.672C87.2367 3.37067 88.6767 2.32533 90.426 1.536C92.1753 0.725333 93.9247 0.32 95.674 0.32C95.9727 0.32 96.3993 0.341333 96.954 0.383999L92.026 23.36C92.6233 23.5093 93.2313 23.7227 93.85 24C94.49 24.2987 95.258 24.6933 96.154 25.184C97.5407 25.9307 98.7247 26.496 99.706 26.88C100.687 27.2853 101.711 27.488 102.778 27.488C103.738 27.488 104.634 27.3173 105.466 26.976C105.295 28.5333 104.911 29.76 104.314 30.656C103.738 31.552 103.013 32 102.138 32ZM101.047 24.128C99.4683 24.128 98.2203 23.7227 97.303 22.912C96.3857 22.1013 95.927 20.8213 95.927 19.072C95.927 17.6213 96.2257 16.0107 96.823 14.24C97.4203 12.4693 98.3803 10.944 99.703 9.664C101.026 8.36267 102.69 7.712 104.695 7.712C107.426 7.712 108.791 9.41867 108.791 12.832V12.864C108.855 12.8853 108.972 12.896 109.143 12.896C109.847 12.896 110.658 12.7147 111.575 12.352C112.492 11.968 113.324 11.5093 114.071 10.976L114.359 11.84C113.74 12.5013 112.93 13.0667 111.927 13.536C110.946 13.984 109.868 14.304 108.695 14.496C108.524 16.4373 108.087 18.1333 107.383 19.584C106.679 21.0347 105.772 22.1547 104.663 22.944C103.554 23.7333 102.348 24.128 101.047 24.128ZM102.327 21.248C102.839 21.248 103.351 20.96 103.863 20.384C104.375 19.7867 104.823 18.9867 105.207 17.984C105.591 16.96 105.868 15.8293 106.039 14.592C105.463 14.464 105.175 14.016 105.175 13.248C105.175 12.3733 105.506 11.7973 106.167 11.52C106.124 10.816 106.018 10.336 105.847 10.08C105.676 9.80267 105.378 9.664 104.951 9.664C104.247 9.664 103.564 10.176 102.903 11.2C102.242 12.224 101.708 13.4507 101.303 14.88C100.898 16.3093 100.695 17.568 100.695 18.656C100.695 19.68 100.812 20.3733 101.047 20.736C101.282 21.0773 101.708 21.248 102.327 21.248ZM114.086 24.192C112.848 24.192 111.878 23.8827 111.174 23.264C110.491 22.624 110.149 21.6747 110.149 20.416C110.149 19.904 110.203 19.392 110.309 18.88L112.614 8H117.222L114.918 18.88C114.811 19.4133 114.758 19.7973 114.758 20.032C114.758 20.736 115.12 21.088 115.846 21.088C116.827 21.088 117.734 20.4693 118.566 19.232C119.419 17.9947 120.102 16.5227 120.614 14.816C121.126 13.1093 121.382 11.6373 121.382 10.4C121.339 10.5067 121.2 10.592 120.966 10.656C120.731 10.6987 120.528 10.72 120.358 10.72C119.995 10.72 119.707 10.5493 119.494 10.208C119.302 9.86667 119.206 9.49333 119.206 9.088C119.206 8.576 119.366 8.16 119.686 7.84C120.027 7.52 120.528 7.36 121.19 7.36C121.894 7.36 122.406 7.62667 122.726 8.16C123.046 8.672 123.206 9.33333 123.206 10.144C123.206 12.064 122.875 14.1227 122.214 16.32C121.552 18.496 120.539 20.352 119.174 21.888C117.808 23.424 116.112 24.192 114.086 24.192ZM128.2 24.192C126.642 24.192 125.426 23.7867 124.552 22.976C123.677 22.144 123.239 20.8533 123.239 19.104C123.239 17.632 123.527 16.0107 124.104 14.24C124.68 12.4693 125.618 10.944 126.92 9.664C128.221 8.36267 129.874 7.712 131.88 7.712C134.226 7.712 135.4 8.736 135.4 10.784C135.4 11.9787 135.058 13.0773 134.376 14.08C133.693 15.0827 132.786 15.8933 131.656 16.512C130.525 17.1093 129.32 17.4507 128.04 17.536C127.997 18.0053 127.976 18.3253 127.976 18.496C127.976 20.2667 128.637 21.152 129.96 21.152C130.557 21.152 131.197 20.992 131.88 20.672C132.562 20.352 133.181 19.9467 133.736 19.456C133.16 22.6133 131.314 24.192 128.2 24.192ZM128.264 16C129.074 15.9787 129.832 15.712 130.536 15.2C131.261 14.688 131.837 14.0373 132.264 13.248C132.712 12.4373 132.936 11.5947 132.936 10.72C132.936 9.84533 132.669 9.408 132.135 9.408C131.389 9.408 130.642 10.0907 129.896 11.456C129.17 12.8 128.626 14.3147 128.264 16Z" fill="black"/>
</g>
<defs>
<filter id="filter0_d_31_631" x="0.192017" y="0.320068" width="139.207" height="39.6799" filterUnits="userSpaceOnUse" color-interpolation-filters="sRGB">
<feFlood flood-opacity="0" result="BackgroundImageFix"/>
<feColorMatrix in="SourceAlpha" type="matrix" values="0 0 0 0 0 0 0 0 0 0 0 0 0 0 0 0 0 0 127 0" result="hardAlpha"/>
<feOffset dy="4"/>
<feGaussianBlur stdDeviation="2"/>
<feComposite in2="hardAlpha" operator="out"/>
<feColorMatrix type="matrix" values="0 0 0 0 0 0 0 0 0 0 0 0 0 0 0 0 0 0 0.25 0"/>
<feBlend mode="normal" in2="BackgroundImageFix" result="effect1_dropShadow_31_631"/>
<feBlend mode="normal" in="SourceGraphic" in2="effect1_dropShadow_31_631" result="shape"/>
</filter>
</defs>
</svg>
